<svg id="googlepla" xmlns="http://www.w3.org/2000/svg" xmlns:xlink="http://www.w3.org/1999/xlink" width="197" height="58.465" viewBox="0 0 197 58.465">
  <defs>
    <linearGradient id="linear-gradient" x1="0.849" y1="0.31" x2="0.361" y2="0.799" gradientUnits="objectBoundingBox">
      <stop offset="0" stop-color="#00a0ff"/>
      <stop offset="0.007" stop-color="#00a1ff"/>
      <stop offset="0.26" stop-color="#00beff"/>
      <stop offset="0.512" stop-color="#00d2ff"/>
      <stop offset="0.76" stop-color="#00dfff"/>
      <stop offset="1" stop-color="#00e3ff"/>
    </linearGradient>
    <linearGradient id="linear-gradient-2" x1="0.97" y1="0.436" x2="-1.177" y2="0.436" gradientUnits="objectBoundingBox">
      <stop offset="0" stop-color="#ffe000"/>
      <stop offset="0.409" stop-color="#ffbd00"/>
      <stop offset="0.775" stop-color="orange"/>
      <stop offset="1" stop-color="#ff9c00"/>
    </linearGradient>
    <linearGradient id="linear-gradient-3" x1="0.761" y1="0.213" x2="-0.443" y2="1.411" gradientUnits="objectBoundingBox">
      <stop offset="0" stop-color="#ff3a44"/>
      <stop offset="1" stop-color="#c31162"/>
    </linearGradient>
    <linearGradient id="linear-gradient-4" x1="-0.17" y1="-0.275" x2="0.367" y2="0.26" gradientUnits="objectBoundingBox">
      <stop offset="0" stop-color="#32a071"/>
      <stop offset="0.068" stop-color="#2da771"/>
      <stop offset="0.476" stop-color="#15cf74"/>
      <stop offset="0.801" stop-color="#06e775"/>
      <stop offset="1" stop-color="#00f076"/>
    </linearGradient>
    <linearGradient id="linear-gradient-5" x1="0.624" y1="0.038" x2="-0.364" y2="1.027" gradientUnits="objectBoundingBox">
      <stop offset="0" stop-color="#cc2e36"/>
      <stop offset="1" stop-color="#9c0e4e"/>
    </linearGradient>
    <linearGradient id="linear-gradient-6" x1="5.233" y1="-7.998" x2="-1.121" y2="-1.634" gradientUnits="objectBoundingBox">
      <stop offset="0" stop-color="#008de0"/>
      <stop offset="0.007" stop-color="#008de0"/>
      <stop offset="0.26" stop-color="#00a7e0"/>
      <stop offset="0.512" stop-color="#00b8e0"/>
      <stop offset="0.76" stop-color="#00c4e0"/>
      <stop offset="1" stop-color="#00c7e0"/>
    </linearGradient>
    <linearGradient id="linear-gradient-7" x1="0.943" y1="-0.195" x2="-2.414" y2="-0.195" gradientUnits="objectBoundingBox">
      <stop offset="0" stop-color="#e0c500"/>
      <stop offset="0.409" stop-color="#e0a600"/>
      <stop offset="0.775" stop-color="#e09100"/>
      <stop offset="1" stop-color="#e08900"/>
    </linearGradient>
    <linearGradient id="linear-gradient-8" x1="0.944" y1="0.999" x2="-2.414" y2="0.999" gradientUnits="objectBoundingBox">
      <stop offset="0" stop-color="#ffe840"/>
      <stop offset="0.409" stop-color="#ffce40"/>
      <stop offset="0.775" stop-color="#ffbc40"/>
      <stop offset="1" stop-color="#ffb540"/>
    </linearGradient>
    <linearGradient id="linear-gradient-9" x1="5.219" y1="0.865" x2="-1.113" y2="6.933" gradientUnits="objectBoundingBox">
      <stop offset="0" stop-color="#40b8ff"/>
      <stop offset="0.007" stop-color="#40b9ff"/>
      <stop offset="0.26" stop-color="#40ceff"/>
      <stop offset="0.512" stop-color="#40ddff"/>
      <stop offset="0.76" stop-color="#40e7ff"/>
      <stop offset="1" stop-color="#40eaff"/>
    </linearGradient>
    <linearGradient id="linear-gradient-10" x1="-0.137" y1="-0.184" x2="0.304" y2="0.257" gradientUnits="objectBoundingBox">
      <stop offset="0" stop-color="#65b895"/>
      <stop offset="0.068" stop-color="#62bd95"/>
      <stop offset="0.476" stop-color="#50db97"/>
      <stop offset="0.801" stop-color="#44ed98"/>
      <stop offset="1" stop-color="#40f498"/>
    </linearGradient>
  </defs>
  <path id="Path_2" data-name="Path 2" d="M189.7,58.465H7.3A7.324,7.324,0,0,1,0,51.157V7.308A7.324,7.324,0,0,1,7.3,0H189.7A7.324,7.324,0,0,1,197,7.308V51.157a7.324,7.324,0,0,1-7.3,7.308"/>
  <path id="Path_3" data-name="Path 3" d="M189.7,0H7.3A7.324,7.324,0,0,0,0,7.308V51.157a7.324,7.324,0,0,0,7.3,7.308H189.7a7.324,7.324,0,0,0,7.3-7.308V7.308A7.323,7.323,0,0,0,189.7,0m0,1.169a6.141,6.141,0,0,1,6.129,6.139V51.157A6.141,6.141,0,0,1,189.7,57.3H7.3a6.142,6.142,0,0,1-6.129-6.139V7.308A6.141,6.141,0,0,1,7.3,1.169H189.7" fill="#a6a6a6"/>
  <path id="Path_4" data-name="Path 4" d="M927.477,157.7a3.962,3.962,0,0,1-1.087,2.927,4.242,4.242,0,0,1-3.217,1.3,4.581,4.581,0,1,1,0-9.162,4.509,4.509,0,0,1,1.8.368,3.611,3.611,0,0,1,1.369.98l-.77.771a2.954,2.954,0,0,0-2.4-1.04,3.5,3.5,0,1,0,2.445,6.026,2.76,2.76,0,0,0,.734-1.776h-3.18v-1.053h4.243a3.751,3.751,0,0,1,.061.662" transform="translate(-858.282 -142.729)" fill="#fff"/>
  <path id="Path_5" data-name="Path 5" d="M925.4,155.622h-.146a3.814,3.814,0,0,1-1.044,2.824h0A4.1,4.1,0,0,1,921.1,159.7a4.435,4.435,0,1,1,0-8.87,4.366,4.366,0,0,1,1.74.356,3.47,3.47,0,0,1,1.315.94l.112-.094-.1-.1-.77.772.1.1.112-.094a3.1,3.1,0,0,0-2.509-1.093,3.649,3.649,0,1,0,2.549,6.276,2.91,2.91,0,0,0,.776-1.867l.014-.159h-3.193v-.761h4.1v-.146l-.144.026a3.574,3.574,0,0,1,.059.636h.292a3.873,3.873,0,0,0-.063-.688l-.022-.12h-4.511v1.346h3.326v-.146l-.145-.013a2.619,2.619,0,0,1-.692,1.686,3.337,3.337,0,0,1-4.632,0,3.529,3.529,0,0,1,0-4.848,3.176,3.176,0,0,1,2.29-.932,2.807,2.807,0,0,1,2.285.988l.1.122.882-.884.095-.095-.086-.1a3.749,3.749,0,0,0-1.423-1.02,4.654,4.654,0,0,0-1.855-.38,4.727,4.727,0,1,0,0,9.454,4.392,4.392,0,0,0,3.322-1.343l-.106-.1.1.1a4.11,4.11,0,0,0,1.13-3.031H925.4m6.726-3.663h-3.987v2.781h3.6v1.054h-3.6v2.781h3.987v1.077h-5.111v-8.77h5.111v1.077" transform="translate(-856.207 -140.65)" fill="#fff"/>
  <path id="Path_6" data-name="Path 6" d="M1081,154.754v-.146h-4.133v3.073h3.6v.761h-3.6v3.073h3.987v.785h-4.819v-8.477h4.819v.931H1081v0h.146V153.53h-5.4v9.062h5.4v-1.37h-3.987v-2.488h3.6v-1.346h-3.6V154.9h3.987v-.146H1081m4.744,7.692h-1.126v-7.692h-2.445v-1.077h6.017v1.077h-2.445v7.692" transform="translate(-1005.083 -143.445)" fill="#fff"/>
  <path id="Path_7" data-name="Path 7" d="M1175.14,162.446V162.3h-.98v-7.692h-2.445v-.785h5.725v.785h-2.445v7.839h.146v0h.146V154.9h2.445v-1.37h-6.308v1.37h2.445v7.692h1.418v-.146h-.146m6.8,0v-8.77h1.125v8.77h-1.125" transform="translate(-1094.474 -143.445)" fill="#fff"/>
  <path id="Path_8" data-name="Path 8" d="M1329.435,162.446h.146v-8.624h.833V162.3h-.979v.146h0v.146h1.271V153.53h-1.417v9.062h.146v-.146m6.115,0h-1.126v-7.692h-2.445v-1.077H1338v1.077h-2.446v7.692" transform="translate(-1241.97 -143.445)" fill="#fff"/>
  <path id="Path_9" data-name="Path 9" d="M1371.732,161.73v-.146h-.98v-7.692h-2.445v-.785h5.725v.785h-2.445v7.839h.146v0h.146v-7.546h2.445v-1.37h-6.308v1.37h2.445v7.692h1.418v-.146h-.146m8.246-1.867a3.363,3.363,0,0,0,4.757,0,3.741,3.741,0,0,0,0-5.035,3.363,3.363,0,0,0-4.757,0,3.746,3.746,0,0,0,0,5.035Zm5.589.734a4.54,4.54,0,0,1-6.42,0,4.743,4.743,0,0,1,0-6.5,4.525,4.525,0,0,1,6.414.006,4.728,4.728,0,0,1,.006,6.5Z" transform="translate(-1278.152 -142.729)" fill="#fff"/>
  <path id="Path_10" data-name="Path 10" d="M1517.894,157.784l-.1.1a3.509,3.509,0,0,0,4.964,0,3.887,3.887,0,0,0,0-5.24,3.509,3.509,0,0,0-4.964,0,3.892,3.892,0,0,0,0,5.24l.1-.1.1-.1a3.6,3.6,0,0,1,0-4.829,3.218,3.218,0,0,1,4.549,0,3.6,3.6,0,0,1,0,4.829,3.218,3.218,0,0,1-4.549,0Zm5.589.734-.1-.1a4.4,4.4,0,0,1-6.211,0l0,0,0,0a4.6,4.6,0,0,1,0-6.3,4.38,4.38,0,0,1,6.205.006,4.583,4.583,0,0,1,.006,6.294l.1.1.1.1a4.874,4.874,0,0,0-.006-6.7,4.67,4.67,0,0,0-6.624-.006h0a4.891,4.891,0,0,0,0,6.707l0,0,0,0a4.686,4.686,0,0,0,6.629,0Zm2.869,1.133v-8.77h1.369l4.255,6.822h.048l-.048-1.69v-5.132h1.126v8.77h-1.174l-4.452-7.153h-.048l.048,1.691v5.462h-1.124" transform="translate(-1416.068 -140.65)" fill="#fff"/>
  <path id="Path_11" data-name="Path 11" d="M962.13,162.446h.146v-8.624h1.142l4.255,6.822h.279l-.052-1.838v-4.984h.834V162.3h-.947l-4.452-7.153h-.279l.052,1.839V162.3h-.978v.146h0v.146h1.27v-5.611l-.048-1.692-.146,0v.146h.049v-.146l-.124.078,4.495,7.221h1.4V153.53h-1.418v5.28l.048,1.692.146,0v-.146h-.049v.146l.124-.078-4.3-6.891h-1.6v9.062h.146v-.146m45.763,24.848h2.723V169.021h-2.723Zm24.526-11.69-3.121,7.922h-.093l-3.24-7.922h-2.933l4.858,11.072-2.77,6.159h2.841l7.486-17.231Zm-15.442,9.615c-.893,0-2.136-.447-2.136-1.552,0-1.41,1.55-1.951,2.886-1.951a4.839,4.839,0,0,1,2.488.612A3.3,3.3,0,0,1,1016.977,185.218Zm.328-10.014a5.111,5.111,0,0,0-4.858,2.8l2.417,1.011a2.58,2.58,0,0,1,2.488-1.34,2.623,2.623,0,0,1,2.863,2.351v.188a6.014,6.014,0,0,0-2.84-.705c-2.6,0-5.258,1.434-5.258,4.114,0,2.445,2.136,4.02,4.53,4.02a3.842,3.842,0,0,0,3.474-1.786h.093v1.41h2.628v-7.006c0-3.243-2.417-5.054-5.538-5.054Zm-16.828,2.624H996.6v-6.263h3.873a3.132,3.132,0,1,1,0,6.263Zm-.07-8.806h-6.524v18.272H996.6v-6.923h3.8a5.683,5.683,0,1,0,0-11.349Zm-35.578,16.2a3.782,3.782,0,0,1,0-7.535,3.8,3.8,0,0,1,0,7.535Zm3.127-8.595h-.094a4.3,4.3,0,0,0-3.268-1.389,6.222,6.222,0,0,0,0,12.433,4.23,4.23,0,0,0,3.268-1.413h.094v.895c0,2.379-1.269,3.65-3.315,3.65a3.436,3.436,0,0,1-3.127-2.214l-2.374.989a5.915,5.915,0,0,0,5.5,3.673c3.2,0,5.9-1.884,5.9-6.476V175.614h-2.586Zm4.467,10.667h2.727V169.021h-2.727Zm6.747-6.028a3.407,3.407,0,0,1,3.244-3.626,2.4,2.4,0,0,1,2.3,1.319Zm8.463-2.072a5.769,5.769,0,0,0-5.313-3.956,5.9,5.9,0,0,0-5.854,6.216,6.078,6.078,0,0,0,6.159,6.216,6.172,6.172,0,0,0,5.173-2.755l-2.116-1.413a3.543,3.543,0,0,1-3.057,1.719,3.158,3.158,0,0,1-3.009-1.884l8.3-3.438Zm-66.116-2.049v2.637h6.3a5.507,5.507,0,0,1-1.434,3.32,6.443,6.443,0,0,1-4.866,1.931,7.018,7.018,0,0,1,0-14.034,6.709,6.709,0,0,1,4.749,1.884l1.857-1.86a9.175,9.175,0,0,0-6.606-2.661,9.655,9.655,0,1,0,0,19.309,8.538,8.538,0,0,0,9-8.877,8.567,8.567,0,0,0-.141-1.648Zm16.167,8.077a3.778,3.778,0,1,1,3.5-3.768A3.594,3.594,0,0,1,937.684,185.221Zm0-9.984a6.216,6.216,0,1,0,6.23,6.216A6.122,6.122,0,0,0,937.684,175.237Zm13.59,9.984a3.778,3.778,0,1,1,3.5-3.768,3.594,3.594,0,0,1-3.5,3.768Zm0-9.984a6.216,6.216,0,1,0,6.23,6.216,6.122,6.122,0,0,0-6.23-6.216Z" transform="translate(-851.846 -143.445)" fill="#fff"/>
  <path id="Path_12" data-name="Path 12" d="M222.323,162.608a2.825,2.825,0,0,0-.782,2.161v31.9a2.93,2.93,0,0,0,.675,2.054l.108.1h0a1.874,1.874,0,0,0,1.289.475,3.357,3.357,0,0,0,1.635-.49l21.181-12.054,7.276-4.141a2.724,2.724,0,0,0,1.529-1.895v0a2.722,2.722,0,0,0-1.529-1.9l-7.276-4.141-21.181-12.054a3.363,3.363,0,0,0-1.638-.492,1.877,1.877,0,0,0-1.288.474Z" transform="translate(-206.988 -151.484)" fill="#00c1ff"/>
  <path id="Path_13" data-name="Path 13" d="M.9-515.35l-.108-.1a2.93,2.93,0,0,1-.675-2.054v-31.9A2.825,2.825,0,0,1,.9-551.566l18.08,18.109L.9-515.35" transform="translate(14.438 562.691)" fill="url(#linear-gradient)"/>
  <path id="Path_14" data-name="Path 14" d="M6.713-172.492.686-178.53l6.027-6.037,7.276,4.14a2.723,2.723,0,0,1,1.529,1.9v0a2.724,2.724,0,0,1-1.529,1.895l-7.276,4.141" transform="translate(32.729 207.763)" fill="url(#linear-gradient-2)"/>
  <path id="Path_15" data-name="Path 15" d="M1.729-264.434a1.875,1.875,0,0,1-1.289-.475h0l18.078-18.108,6.027,6.038L3.364-264.924a3.356,3.356,0,0,1-1.635.49" transform="translate(14.897 312.251)" fill="url(#linear-gradient-3)"/>
  <path id="Path_16" data-name="Path 16" d="M18.27-265.022.19-283.131a1.877,1.877,0,0,1,1.288-.474,3.362,3.362,0,0,1,1.638.492L24.3-271.059l-6.027,6.037" transform="translate(15.145 294.255)" fill="url(#linear-gradient-4)"/>
  <path id="Path_17" data-name="Path 17" d="M2.188-182.335a1.879,1.879,0,0,1-1.29-.476h0l0,0L.8-182.906l-.009-.01.108-.109a1.874,1.874,0,0,0,1.289.475,3.356,3.356,0,0,0,1.635-.49L25-195.094l.136.136L25-194.88,3.823-182.826a3.484,3.484,0,0,1-1.5.488q-.067,0-.133,0" transform="translate(14.438 230.366)" fill="url(#linear-gradient-5)"/>
  <path id="Path_18" data-name="Path 18" d="M.79-33.038a2.929,2.929,0,0,1-.675-2.054v-.213A2.93,2.93,0,0,0,.79-33.251l.108.1-.108.109" transform="translate(14.438 80.489)" fill="url(#linear-gradient-6)"/>
  <path id="Path_19" data-name="Path 19" d="M.778-87.955l-.136-.136,7.276-4.141a2.724,2.724,0,0,0,1.529-1.895,1.812,1.812,0,0,1-.169.754,3.134,3.134,0,0,1-1.361,1.355L.778-87.955" transform="translate(38.8 123.363)" fill="url(#linear-gradient-7)"/>
  <path id="Path_20" data-name="Path 20" d="M9.439-88.511a2.723,2.723,0,0,0-1.529-1.9L.633-94.548l.136-.136h0l7.14,4.064a2.566,2.566,0,0,1,1.529,2.109" transform="translate(38.809 117.744)" fill="url(#linear-gradient-8)"/>
  <path id="Path_21" data-name="Path 21" d="M.115-32.49v-.223c0-.081,0-.159.006-.236v0a.01.01,0,0,1,0,0v-.009A2.787,2.787,0,0,1,.79-34.758l.107.107A2.826,2.826,0,0,0,.115-32.49" transform="translate(14.438 45.776)" fill="url(#linear-gradient-9)"/>
  <path id="Path_22" data-name="Path 22" d="M25-182.143,3.822-194.2a3.363,3.363,0,0,0-1.638-.491,1.877,1.877,0,0,0-1.288.474l-.107-.107q.05-.053.1-.1l0,0a1.876,1.876,0,0,1,1.276-.475h.011a3.362,3.362,0,0,1,1.638.492L25.139-182.28h0l-.136.136" transform="translate(14.439 205.34)" fill="url(#linear-gradient-10)"/>
</svg>
